<svg xmlns="http://www.w3.org/2000/svg" viewBox="0 0 762 762" fill="none" shape-rendering="auto"><metadata xmlns:rdf="http://www.w3.org/1999/02/22-rdf-syntax-ns#" xmlns:xsi="http://www.w3.org/2001/XMLSchema-instance" xmlns:dc="http://purl.org/dc/elements/1.1/" xmlns:dcterms="http://purl.org/dc/terms/"><rdf:RDF><rdf:Description><dc:title>Adventurer</dc:title><dc:creator>Lisa Wischofsky</dc:creator><dc:source xsi:type="dcterms:URI">https://www.figma.com/community/file/1184595184137881796</dc:source><dcterms:license xsi:type="dcterms:URI">https://creativecommons.org/licenses/by/4.0/</dcterms:license><dc:rights>Remix of „Adventurer” (https://www.figma.com/community/file/1184595184137881796) by „Lisa Wischofsky”, licensed under „CC BY 4.0” (https://creativecommons.org/licenses/by/4.0/)</dc:rights></rdf:Description></rdf:RDF></metadata><mask id="viewboxMask"><rect width="762" height="762" rx="381" ry="381" x="0" y="0" fill="#fff" /></mask><g mask="url(#viewboxMask)"><path d="M396 164.8a224.8 224.8 0 0 1 104.8 42.4c6.2 4.9 12.5 9.4 18 15a225.4 225.4 0 0 1 71.8 149 58.5 58.5 0 0 1 50.9 42.2 71 71 0 0 1-27.6 76.5c-11 7.7-24.5 12-38 11.7-5 0-10-1.6-15-1.8-1.9 2.2-3.3 4.9-4.8 7.3A223.3 223.3 0 0 1 389 609.8c-11 .7-21.9 2-33 .7a223.7 223.7 0 0 1-178.8-342.3A223.4 223.4 0 0 1 352 163.5c14.6-1.4 29.4-.3 44 1.3Z" fill="#000"/><path fill-rule="evenodd" clip-rule="evenodd" d="M498.8 213.2A216 216 0 0 0 363 169c-13-.2-26.2 1.6-39 4a218 218 0 0 0-113.6 365.5 218.5 218.5 0 0 0 260.4 40.2c35-18.8 64.2-47.3 84.4-81.5l-3-1.6c-2.8-1.4-5.7-3-8-5-2.2-2-.3-5.8 2.7-4.7 1.5.7 3 1.6 4.4 2.4a55 55 0 0 0 59.6-3.6 64.5 64.5 0 0 0 25-69.8 53.1 53.1 0 0 0-24-31 52.6 52.6 0 0 0-47-2.8c-1.6.8-3.4 1.5-5 1.3-2.5-.2-2.8-4.2-.6-5.2 8-4 16.5-5.6 25.4-6.4a217 217 0 0 0-72-146.4c-4.4-4-8.7-8.1-13.9-11.3Zm107.6 196.2c2-1.2 1.3-5.1-1.4-5-2 0-4.2.8-6.2 1.6l-1.4.4a95.1 95.1 0 0 0-25.5 12.4c-2.2 2-2.2 4.4.1 6.2a92 92 0 0 0 5.2 2.8 36 36 0 0 1 13 9.2c-.2 1.9-2 3.4-3.4 4.5l-.2.2c-3.9 3-8.8 5-13.6 7-2.5 1-4.9 2-7.1 3.1-1.7.8-2.6 2.2-1.6 3.9 1 2 3.2 1.1 5 .5l.6-.2 5.4-2.3c5.4-2.3 11-4.5 15.4-8 2.7-2.1 5.1-5.1 5.4-8.7-.5-3.4-2.7-5.7-5.3-7.8a83 83 0 0 0-11.6-7.2l-1.1-.6c5.4-3 10.8-5.6 16.6-7.7l5-1.7a52 52 0 0 0 6.7-2.6Z" fill="#ffdfba"/><g transform="translate(-161 -83)"><path d="M550.3 424.4a65.9 65.9 0 0 1 62 30.4A64.9 64.9 0 0 1 598 540a65.4 65.4 0 1 1-47.7-115.6Z" fill="#000"/><path d="M549.2 430.3a59.7 59.7 0 1 1 15.1 118.3 59.7 59.7 0 0 1-15-118.3Z" fill="#fff"/><path d="M521.2 467.3a22.2 22.2 0 1 1 10.8 43 22.2 22.2 0 0 1-10.8-43ZM333 478.5c14.4.7 28.8 1.5 43 3.9 21.1 3.4 42.9 9 62.1 18.4 2.9 1.6 2.5 3.3 1.6 6.1-2.4 0-4.4-.2-6.7-1-11.1-3.4-22.5-5.3-34-7.2-10.4-1.4-20.6-3.2-31-3.7-11-1-21.9-.7-33-.6-2-.1-5 .6-6.6-.8-.7-2.1.8-4.7 1.3-6.8-.9-1.6-3-3.4-2.4-5.4 1-2.4 3.4-3 5.7-3Z" fill="#000"/></g><g transform="translate(-161 -83)"><path d="M531 353.9c17 2 34 7.4 48.6 16.5a57 57 0 0 1 18.3 16.9c.9 1.2 1.2 3.5-.2 4.3-1.2 1.2-2.9.5-4.2 0a143 143 0 0 0-54-15c-13.4-.9-28.2-1-41 3.8-3 1-5.6 3-8.5 3.8-1.4.3-2.5-1-3-2.2a18 18 0 0 1 .3-14.8 23 23 0 0 1 13.3-10.7A72.5 72.5 0 0 1 531 354ZM414 408c8.2 2.4 14.6 10.9 13.6 19.5-1.9.6-3.6 1-5.6.7a108 108 0 0 0-42.8 5.9c-14 4.7-28.5 11.6-39.4 21.8-1.4 1.3-4.3 3-5.6.7-1.7-2.3 0-4 1.4-6a128 128 0 0 1 49-39c8.8-3.6 20-6.5 29.4-3.5Z" fill="#000"/></g><g transform="translate(-161 -83)"><path d="M481 561.7c4.7-.6 10.2 0 13.7 3.6 3.8 4 4.1 9.5 3.2 14.6A30.8 30.8 0 0 1 473 603a32.8 32.8 0 0 1-22.2-4 26 26 0 0 1-11-13 15.4 15.4 0 0 1-.5-10.6c1.3-3.2 4.1-5 7.3-5.7 5.7-1.9 11.7.2 16.7 3 4.6-5 10.5-10.2 17.6-11.1Z" fill="#000"/><path d="M480.5 567.7c3.3-1 7.4-.6 10 1.8 2 2 2.1 5.9 1.7 8.5a24.8 24.8 0 0 1-20 19.4 26.8 26.8 0 0 1-18.9-3.7c-4.3-2.5-7.4-7-8.8-11.7-.7-2.5-.4-5.1 2-6.4 2.6-1.1 5.8-1 8.5-.5 3.5.7 5.8 2.9 9 4.3 2 0 2.6-1.4 3.8-2.6 3.3-4 7.7-7.6 12.7-9.1Z" fill="#8F2E45"/></g><g transform="translate(-161 -83)"></g><g transform="translate(-161 -83)"></g><g transform="translate(-161 -83)"><g fill="#000"><path d="M440.2 189.2c1.8-.1 3.6-1 4.7 1 1.6 2 1.1 3.4-.6 5a62.2 62.2 0 0 0-18.3 29.3c30-13.1 63.4-19.6 96-21 9.4-.7 18.6-.7 28 0a281 281 0 0 1 80.5 14.8c18.5 6.5 37 15.6 52 28.3a77.8 77.8 0 0 1 26.5 39.1c3.8-.2 7.3-.4 10.7 1.6 7.3 3.8 12.4 12 16 19.1a182.4 182.4 0 0 1 14.5 46.6c3.3 17.2 4.8 34.6 5.8 52 .1 13 .6 26.1-.8 39-.4 4.3-.3 8.7-1.3 12.9-1 3-4.4 2.7-6.9 3-8.3.3-17.8 1.7-25 6.2-1.3 2.5-1.5 5.6-2.7 8.2-2 2.3-4.8 4-7.2 5.8-6.3 4.3-12.3 9.1-18.5 13.5-1.8 1.1-4.1 2.7-6 .6-1.3-1.2-1.3-2.5-1-4.2 3.2-19.6 2.9-40.2 2.2-60 .1-7.8-.9-15.4-1.3-23.2a53.7 53.7 0 0 1-19.3-5A77.9 77.9 0 0 1 634 369c-6-11-9.4-23.4-8.2-36A1013.5 1013.5 0 0 1 466 346.2c-10.8-.3-21.5 0-32.2-1-14.4-.6-28.6-1.8-42.8-4-11.2-1.7-22.6-4-33.3-8-4.9 5-8 10.7-11.9 16.5-2.3 3.5-4 7.4-6.3 10.7-1 1.6-3.2 1.8-4.4.3-1.2-2.3-1.6-5.2-2.1-7.8a61.6 61.6 0 0 1 4-37c-2.4-4.5-4.6-9-5.8-14a62 62 0 0 1 6.5-44.3c9.3-17.8 24.9-32.5 41.6-43.4a182.2 182.2 0 0 1 61-25Z"/><path d="M340.5 321.2c3.1 4.3 7.2 7.2 11.8 9.7-5 6.6-9.6 13.5-14 20.5-1.2-9-1.5-17.8 1.2-26.6l1-3.6ZM718.2 480.6c2 1.1 1.6 3.3 0 4.6-8 6.8-16.4 13-25 19-1.5 1-3.2 2-4.6.2-1.8-1.7 0-3.3 1.3-4.5 3.7-3 7.8-5.5 11.6-8.4 4-2.9 7.9-6.2 11.8-9.2 1.6-1 3-2.3 5-1.7Z"/></g><path d="M436 196.1a63 63 0 0 0-15.4 27c-.3 2-1.3 4.7-.2 6.5 1.5.8 3 1.2 4.6 1.7 41.8-19 88.5-24.5 134-21.5 29 2.2 58.4 8.3 85.1 20.1 15.2 6.8 30.4 16 42 28a63.7 63.7 0 0 1 18 33l1.8 1.3c4.1-.7 7.6-1.8 11.5.4 6.4 3.7 10.8 11.5 14 18a198.7 198.7 0 0 1 14.4 50.4c2 12.6 3.5 25.3 4 38 .1 8 .9 16 .6 24-.4 10.5-.6 21-1.8 31.4-7.8.3-15.2 1-22.6 3.7-2.8 1-6.4 2.2-8.4 4.5-1.5 2.7-2 6-3 9L693 487.2c1.6-9.3 1.4-18.7 2.1-28.2.5-9.4-.6-18.6-.7-28-.2-5.4-.2-10.7-.8-16-.5-4.7-.5-9-2-13.5-5.7-.8-11.2-1-16.6-3.2a70.6 70.6 0 0 1-37-34.2 52 52 0 0 1-5.5-34.7c-2.6-3.4-7.3-2.2-10.9-1.7A964.5 964.5 0 0 1 447 340c-10-.1-20-.5-30-1.4-17-1.5-34.6-3.6-51-8.6a57 57 0 0 1-17-8 47.7 47.7 0 0 1-12.7-43c3-16 12.6-30.5 23.9-41.8a165 165 0 0 1 75.7-41Z" fill="#85c2c6"/></g><g transform="translate(-161 -83)"></g></g></svg>